<?xml version="1.0" encoding="utf-8"?>
<!-- Generator: Adobe Illustrator 18.1.1, SVG Export Plug-In . SVG Version: 6.00 Build 0)  -->
<svg version="1.1" id="Layer_1" xmlns="http://www.w3.org/2000/svg" xmlns:xlink="http://www.w3.org/1999/xlink" x="0px" y="0px"
	 viewBox="0 0 105.1 222.6" enable-background="new 0 0 105.1 222.6" xml:space="preserve">
<g>
	<path fill="none" stroke="#D2D2D2" stroke-width="4.7068" stroke-linecap="round" stroke-miterlimit="10" d="M30.6,59.8
		c0,0-16.1,3-13.2,17.5s-6.7,15.2-6.7,15.2S-1.5,98.9,21,108.9c0,0,4.2-4.7,6.2-1.2c2,3.5,2.1,9,5.8,11.6"/>
	<path fill="#7A786F" d="M89.9,43.9L89.9,43.9c-0.7,0-1.3-0.6-1.3-1.3V29.9c0-0.7,0.6-1.3,1.3-1.3l0,0c0.7,0,1.3,0.6,1.3,1.3v12.6
		C91.3,43.3,90.7,43.9,89.9,43.9z"/>
	<path fill="#7A786F" d="M19.1,43.1L19.1,43.1c-0.7,0-1.3-0.6-1.3-1.3V29.1c0-0.7,0.6-1.3,1.3-1.3l0,0c0.7,0,1.3,0.6,1.3,1.3v12.6
		C20.4,42.5,19.8,43.1,19.1,43.1z"/>
	<g>
		<path fill="#F3AC6A" d="M82.8,40c0,0.1,0,0.2,0,0.3c0,4.4-1.1,8.5-2.9,12.2c0,0,0,0,0,0c0,0.1-0.1,0.2-0.1,0.2
			c-3,6.1-8.1,11-14.4,13.6c-0.7,0.3-0.7,1.3-0.1,1.6l9.9,5.8c0.4,0.2,0.6,0.7,0.5,1.1L57.7,110c-0.2,0.6-0.9,0.8-1.4,0.5l-7.5-5
			c0,0,0,0-0.1,0l-15.7-12c-0.2-0.2-0.3-0.4-0.4-0.7l-1.8-16c0-0.3,0.1-0.6,0.4-0.8l12.3-7.7c0.6-0.4,0.5-1.3-0.2-1.6
			c-16.3-6.4-25.3-27.1-11.5-46.6c0.2-0.2,0.3-0.5,0.5-0.7c0.1-0.1,0.1-0.2,0.2-0.3c0-0.1,0.1-0.1,0.1-0.2c0.1-0.1,0.1-0.1,0.2-0.2
			c16.2-12.2,33.5-8.4,42.8,2.5C80.2,26.4,82.8,32.9,82.8,40z"/>
		<polygon opacity="5.000000e-02" fill="#010202" points="41,72.1 52.8,85.8 68,72.1 52.8,96.7 41.8,80.4 		"/>
		<g>
			<path fill="#966643" d="M43.9,44.7c0,1.6-1.3,2.9-2.9,2.9c-1.6,0-2.9-1.3-2.9-2.9c0-1.6,1.3-2.9,2.9-2.9
				C42.6,41.8,43.9,43.1,43.9,44.7z"/>
			<path fill="#966643" d="M70,44.7c0,1.6-1.3,2.9-2.9,2.9c-1.6,0-2.9-1.3-2.9-2.9c0-1.6,1.3-2.9,2.9-2.9C68.7,41.8,70,43.1,70,44.7
				z"/>
		</g>
		<path opacity="8.000000e-02" fill="#010202" d="M82.8,40c0,0.1,0,0.2,0,0.3c0,4.4-1.1,8.5-2.9,12.2c0,0,0,0,0,0
			C74.8,43.4,64,41.3,54,37.8C45.7,35,36.5,25.3,32.1,20.2c0,0-0.1-0.1-0.1-0.1c0-0.1,0.1-0.1,0.2-0.2c0.1-0.1,0.1-0.1,0.2-0.2
			c0.1-0.1,0.2-0.1,0.2-0.2c16.3-12.1,33.5-8.7,43.3,1.8C80.2,26.4,82.8,32.9,82.8,40z"/>
		<g>
			<path fill="#A37352" d="M62.9,52.3c-0.1,1.3-0.4,2.6-1,3.7c-0.4,0.7-0.9,1.4-1.4,2c-1.6,1.7-3.9,2.8-6.4,2.8
				c-2.7,0-5.1-1.2-6.7-3.1c-1.1-1.3-1.8-2.8-2.1-4.6c0-0.3-0.1-0.5-0.1-0.8c0-0.1,0-0.2,0.1-0.3c0.1-0.1,0.2-0.2,0.4-0.3
				c5.6-1.5,11.2-1.5,16.9,0c0.1,0,0.3,0.1,0.4,0.3C62.9,52.1,62.9,52.2,62.9,52.3z"/>
			<path opacity="0.12" fill="#221F1F" d="M62.9,52.3c-0.1,1.3-0.4,2.6-1,3.7c-4-3.5-12.8-3.2-16.7-2.9c0-0.3-0.1-0.5-0.1-0.8
				c0-0.1,0-0.2,0.1-0.3c0.1-0.1,0.2-0.2,0.4-0.3c5.6-1.5,11.2-1.5,16.9,0c0.1,0,0.3,0.1,0.4,0.3C62.9,52.1,62.9,52.2,62.9,52.3z"/>
		</g>
		<path fill="#494C49" d="M28.4,19.9c-1,1-10.1,10.6-4.8,23.5c0.2,0.6,1,0.8,1.5,0.4c2.4-2,8.5-7.6,9-11.6c0.5-3.9,2.7-11,3.6-13.8
			c0.2-0.6-0.3-1.2-0.9-1.2c-1.6,0-4.6,0.4-8.3,2.6C28.6,19.8,28.5,19.8,28.4,19.9z"/>
		<path fill="#5D5D59" d="M78.4,17.1c-4.2-4.8-9.9-8.3-16.3-9.9c-2.5-0.6-5.1-1-7.9-1c-8.4,0-16.1,3.2-21.9,8.6
			c-1.1,1-2.2,2.2-3.1,3.3c0,0.1,0.1,0.1,0.2,0.2c3.1,3.1,15.5,15.3,25.7,17.8C66,39,77.8,40,83.3,50.5c0.2,0.3,0.5,0.5,0.8,0.5
			c0.6-1.5,1.1-3,1.5-4.6c0.6-2.5,1-5.1,1-7.8C86.5,30.3,83.4,22.8,78.4,17.1z"/>
		<path opacity="5.000000e-02" fill="#FFFFFF" d="M86.5,38.6c0,2.7-0.3,5.3-1,7.8c-0.3,1.4-0.8,2.7-1.3,4.1
			c-8.8-35-38.6-36.2-52.9-34.6c0.3-0.3,0.6-0.6,1-1c5.8-5.3,13.4-8.6,21.9-8.6c2.7,0,5.3,0.3,7.9,1c6.4,1.6,12,5.1,16.3,9.9
			C83.4,22.8,86.5,30.3,86.5,38.6z"/>
		<g>
			<circle opacity="0.2" fill="#FFFFFF" cx="37" cy="48.1" r="1"/>
			<circle opacity="0.2" fill="#FFFFFF" cx="71.1" cy="48.1" r="1"/>
		</g>
	</g>
	<g>
		<g>
			<path fill="#E96A13" d="M95.4,134.9c-3.8,0-7-2.9-7.3-6.7l-0.1-0.7c0-0.2,0-0.3,0-0.5c0-0.3-0.1-0.6-0.1-1l-0.3-2.1
				c0-0.1,0-0.2,0-0.3l-0.3-1.8c-0.1-0.5-0.2-1.1-0.4-1.8c-0.1-0.4-0.2-0.8-0.2-1.1c-0.1-0.4-0.2-0.7-0.3-1.1
				c-0.2-0.7-0.3-1.3-0.5-1.8l-0.1-0.2c-0.6-2.2-1.4-4.4-2.1-6c-0.6-1.6-1.4-3.3-2.3-5c-0.2-0.5-0.5-0.9-0.7-1.3
				c-0.1-0.2-0.2-0.4-0.3-0.6l-0.8-1.5l-0.8-1.3c-2.1-3.5-1-8,2.4-10.1c3.5-2.1,8-1,10.1,2.4l1,1.7l1,1.8c0.1,0.2,0.2,0.4,0.3,0.6
				c0.3,0.5,0.6,1.1,0.9,1.6c1.1,2.1,2,4.2,2.8,6.2c0.8,2,1.8,4.6,2.5,7.4c0.3,0.9,0.5,1.8,0.7,2.6c0.1,0.4,0.2,0.7,0.3,1.1l0.1,0.4
				c0.1,0.4,0.2,0.7,0.2,1.1c0.2,0.8,0.4,1.7,0.5,2.6l0.3,1.6c0.1,0.4,0.1,0.8,0.2,1.2l0.2,1.8c0.1,0.7,0.2,1.4,0.2,1.8
				c0,0.1,0,0.2,0,0.3l0.1,0.8c0.4,4-2.6,7.6-6.7,8C95.9,134.9,95.7,134.9,95.4,134.9z"/>
		</g>
		<g opacity="0.12">
			<path fill="#231F20" d="M95.4,134.9c-3.8,0-7-2.9-7.3-6.7l-0.1-0.7c0-0.2,0-0.3,0-0.5c0-0.3-0.1-0.6-0.1-1l-0.3-2.1
				c0-0.1,0-0.2,0-0.3l-0.3-1.8c-0.1-0.5-0.2-1.1-0.4-1.8c-0.1-0.4-0.2-0.8-0.2-1.1c-0.1-0.4-0.2-0.7-0.3-1.1
				c-0.2-0.7-0.3-1.3-0.5-1.8l-0.1-0.2c-0.6-2.2-1.4-4.4-2.1-6c-0.6-1.6-1.4-3.3-2.3-5c-0.2-0.5-0.5-0.9-0.7-1.3
				c-0.1-0.2-0.2-0.4-0.3-0.6l-0.8-1.5l-0.8-1.3c-2.1-3.5-1-8,2.4-10.1c3.5-2.1,8-1,10.1,2.4l1,1.7l1,1.8c0.1,0.2,0.2,0.4,0.3,0.6
				c0.3,0.5,0.6,1.1,0.9,1.6c1.1,2.1,2,4.2,2.8,6.2c0.8,2,1.8,4.6,2.5,7.4c0.3,0.9,0.5,1.8,0.7,2.6c0.1,0.4,0.2,0.7,0.3,1.1l0.1,0.4
				c0.1,0.4,0.2,0.7,0.2,1.1c0.2,0.8,0.4,1.7,0.5,2.6l0.3,1.6c0.1,0.4,0.1,0.8,0.2,1.2l0.2,1.8c0.1,0.7,0.2,1.4,0.2,1.8
				c0,0.1,0,0.2,0,0.3l0.1,0.8c0.4,4-2.6,7.6-6.7,8C95.9,134.9,95.7,134.9,95.4,134.9z"/>
		</g>
	</g>
	<path fill="#44423D" d="M39.8,70.1v-2.7c0,0,14,5.3,28.8,0v2.4L64,73.7l-16.3,3.1c0,0-5.8-2.4-5.9-2.7
		C41.8,73.9,39.8,70.1,39.8,70.1z"/>
	<path fill="#44423D" d="M49,149.2L45.5,209l-0.1,2.2l-0.2,3.2c0,1.8-1.3,3.4-3,3.8l-18.4,4c-0.7,0.2-1.5,0.1-2.2-0.2l-8.1-3.1
		c-2.7-1.1-3.3-4.6-1.1-6.5l2.3-2h0l4.8-4l0-0.1l1.8-8.9l1.4-7.2l7.2-39.6l0.7-3.5c0.5-1.9,2.2-3.1,4.2-2.9l10.8,1.2
		C47.5,145.6,49,147.2,49,149.2z"/>
	<path fill="#44423D" d="M57.2,149.6l3.5,59.8l0.1,2.2l0.2,3.2c0,1.8,1.3,3.4,3,3.8l18.4,4c0.7,0.2,1.5,0.1,2.2-0.2l8.1-3.1
		c2.7-1.1,3.3-4.6,1.1-6.5l-2.3-2h0l-4.8-4l0-0.1l-1.8-8.9l-1.4-7.2L76.2,151l-0.7-3.5c-0.5-1.9-2.2-3.1-4.2-2.9l-10.8,1.2
		C58.7,146,57.2,147.6,57.2,149.6z"/>
	<g>
		<path fill="#E96A13" d="M103.6,126.3c0,0-4,0.1-8,0.2c-4,0.1-8,0.3-8,0.3c-0.4,0-0.8-0.3-0.9-0.6l-0.2-1.1l-0.1-0.6
			c0-0.2-0.1-0.4-0.1-0.7l-0.2-1.3c-0.1-0.9-0.4-1.8-0.5-2.7c-0.2-0.9-0.4-1.7-0.7-2.6c-1-3.5-2.2-6.9-3.8-10.1
			c-1-2.1-2.2-4.2-3.4-6.2c-0.7-1.1-1.4-2.1-2.1-3.1c-1-1.5-2.2-2.9-3.3-4.2c-1.2-1.3-2.4-2.6-3.6-3.7l-0.5-0.5l10.9-13.6l0.1-0.1
			l0.4,0.4l0.2,0.2l0.1,0.1l0.6,0.5c0.9,0.8,1.7,1.6,2.5,2.4c0.1,0.1,0.2,0.2,0.3,0.3c0.9,0.9,1.7,1.8,2.5,2.8
			c1.6,1.9,3.1,3.8,4.5,5.8c1.4,2,2.7,4.1,3.9,6.2c1.2,2.1,2.3,4.3,3.3,6.5c2,4.4,3.6,9.1,4.8,13.8c0.3,1.2,0.5,2.4,0.8,3.6
			c0.2,1.2,0.4,2.4,0.6,3.6l0.3,2c0.1,0.5,0.1,1,0.2,1.5C104.4,125.8,104,126.3,103.6,126.3z"/>
	</g>
	<path fill="#E96A13" d="M57.1,144.6c0,0-0.5,2.4-1.2,6.2l-2.9,15.3c-2.2,11.8-4.7,25.7-5.2,29.2c0,0.2-0.1,0.4-0.1,0.5
		c0,0.2-0.1,0.4-0.1,0.6L45.4,212c-17.2-10.9-26.4-5.3-26.4-5.3l-3.1,2.6l-2.1-5.6c-0.1-0.1,0-0.3,0-0.4l1.3-2.3l6.8-27.5l1-3.8
		l0.3-1.2l1-3.8l5.4-21.5L57.1,144.6z"/>
	<path fill="#E96A13" d="M92.1,203.7l-2.1,5.6l-3.1-2.6c0,0-8.9-5.4-25.7,4.8c-0.1,0.1-0.2,0.1-0.4,0.2c0,0,0-0.1,0-0.1l-2.7-16.2
		l0-0.3l0-0.3c-0.5-3.3-2-12.3-3.7-20.9c-1.3-6.8-2.7-13.9-3.7-19.5c-1.1-5.8-1.9-9.8-1.9-9.8l27.5-1.4l1,4l3.5,13.9v0l9.8,39.9
		l1.3,2.3C92.1,203.4,92.1,203.6,92.1,203.7z"/>
	<g>
		<path fill="#CECAC5" d="M31,83.5c0,0-22,18.6-21.6,53.1"/>
	</g>
	<g>
		<path fill="#E96A13" d="M9.4,137.2c-0.2,0-0.4,0-0.7,0c-4-0.4-7-3.9-6.7-8l0.1-0.8c0-0.1,0-0.2,0-0.3c0-0.4,0.1-1,0.2-1.7
			c0.5-4.5,1.6-9.6,2.9-14.1l0-0.1c0.9-2.8,1.7-5.2,2.6-7.3c1-2.3,1.9-4.4,2.9-6.1c0.7-1.4,1.5-2.7,2.3-4.2c0.3-0.5,0.6-1,0.8-1.3
			l0.2-0.3c2.2-3.4,6.7-4.5,10.1-2.3c3.4,2.2,4.5,6.7,2.3,10.1l-0.3,0.4c-0.1,0.2-0.3,0.4-0.5,0.8l0,0.1c-0.4,0.8-1.1,1.9-1.9,3.4
			l0,0.1c-0.7,1.4-1.5,3-2.3,5c-0.7,1.7-1.4,3.6-2.1,6c-1.1,3.7-2,8-2.4,11.5l0,0.2c0,0.3-0.1,0.6-0.1,1c0,0.2,0,0.4,0,0.6l-0.1,0.7
			C16.4,134.3,13.2,137.2,9.4,137.2z"/>
	</g>
	<g opacity="0.12">
		<path fill="#231F20" d="M9.4,137.2c-0.2,0-0.4,0-0.7,0c-4-0.4-7-3.9-6.7-8l0.1-0.8c0-0.1,0-0.2,0-0.3c0-0.4,0.1-1,0.2-1.7
			c0.5-4.5,1.6-9.6,2.9-14.1l0-0.1c0.9-2.8,1.7-5.2,2.6-7.3c1-2.3,1.9-4.4,2.9-6.1c0.7-1.4,1.5-2.7,2.3-4.2c0.3-0.5,0.6-1,0.8-1.3
			l0.2-0.3c2.2-3.4,6.7-4.5,10.1-2.3c3.4,2.2,4.5,6.7,2.3,10.1l-0.3,0.4c-0.1,0.2-0.3,0.4-0.5,0.8l0,0.1c-0.4,0.8-1.1,1.9-1.9,3.4
			l0,0.1c-0.7,1.4-1.5,3-2.3,5c-0.7,1.7-1.4,3.6-2.1,6c-1.1,3.7-2,8-2.4,11.5l0,0.2c0,0.3-0.1,0.6-0.1,1c0,0.2,0,0.4,0,0.6l-0.1,0.7
			C16.4,134.3,13.2,137.2,9.4,137.2z"/>
	</g>
	<g>
		<path fill="#E96A13" d="M36.3,90.5l-0.4,0.4l-0.6,0.6c-2.3,2.3-4.4,5-6.4,7.8c0,0.1-0.1,0.1-0.1,0.2c-1.9,2.8-3.5,5.7-4.9,8.7
			c-2.9,6.2-4.8,12.9-5.6,19.8c-0.1,0.4-0.4,0.7-0.9,0.6c0,0-4-0.2-8-0.3c-4-0.1-8-0.2-8-0.2c-0.5,0-0.8-0.5-0.8-1
			c0-0.2,0-0.5,0.1-0.7l0.1-1.1l0.2-1.7c0.1-0.6,0.2-1.1,0.3-1.7l0.3-1.7l0.3-1.7c0.2-1.1,0.5-2.2,0.8-3.4c1.1-4.5,2.7-8.8,4.5-13
			c0.5-1.1,1-2.1,1.5-3.1c0.5-1,1-2.1,1.6-3.1c1.1-2,2.3-4,3.6-5.9c1.9-2.9,4-5.6,6.4-8.3c0.8-0.9,1.6-1.8,2.5-2.6
			c0.2-0.2,0.4-0.4,0.6-0.6c0.1-0.1,0.1-0.1,0.2-0.2c0.1-0.1,0.1-0.1,0.2-0.2l0.5-0.5l0.3-0.2l0,0l0.4-0.3l3.9,4.6c0,0,0,0,0,0
			L36.3,90.5z"/>
	</g>
	<path fill="#F3AC6A" d="M48.4,155.7L48.4,155.7c2.7-2.1,6.6-2,9.2,0.3l2,1.8l2.3-14.4L46,140.5l-5.1,3.6L48.4,155.7z"/>
	<path fill="#E96A13" d="M79.8,156.9c-5.7,3.9-14.5,9.2-21.9,11c-0.8,0.2-1.7-0.3-2-1.1c-1-3.2-2.7-6.2-4.7-9l-2.6,5l-1.1,2.2
		c-0.3,0.6-1,1-1.7,0.9c-3.2-0.4-12.7-1.9-20.3-6.5l3.6-19.8l1-14c0.1-3.2,0.1-6.4,0-9.6c-0.3-12.3-2.2-24.5-6.5-36.8
		c-0.3-0.8,0.1-1.7,0.9-2.1l15-6.9c0.4-0.2,0.9,0,1.1,0.3c0,0,12.2,4.5,27-0.1c0.2-0.3,0.7-0.5,1.1-0.3l5.9,2.9l3.8,1.8
		c0.1,0.1,0.3,0.1,0.4,0.2c0.2,0.2,0.4,0.5,0.5,0.7c0.1,0.2,0.1,0.4,0.1,0.6l0,0.5l-0.4,6.6l-1,17.4l-1.6,27.7l-0.3,4.4L79.8,156.9z
		"/>
	<path fill="#F3AC6A" d="M40.5,70.5"/>
	<path fill="#44423D" d="M94.5,46.7"/>
	<path opacity="9.000000e-02" fill="#231F20" d="M78.7,75.1l-4.4,4.4c-0.9,0.9-2.3,0.9-3.1,0c-0.9-0.9-0.9-2.3,0-3.1l3.3-3.3
		l3.8,1.8C78.5,74.9,78.6,75,78.7,75.1z"/>
	<path opacity="9.000000e-02" fill="#231F20" d="M83.1,79.2l-4.3,4.3l-0.2,0.2c-0.9,0.9-2.3,0.9-3.1,0c-0.9-0.9-0.9-2.3,0-3.1
		l4.4-4.4l0.1,0.1l0.6,0.5C81.5,77.6,82.3,78.4,83.1,79.2z"/>
	<path opacity="9.000000e-02" fill="#231F20" d="M28.5,75.2l3.2,3.3c0.9,0.9,0.9,2.3,0,3.1c-0.8,0.8-2,0.9-2.9,0.2
		c-0.1-0.1-0.2-0.1-0.2-0.2l-4.1-4.1l-0.3-0.3c0,0,0.1-0.1,0.1-0.1L28.5,75.2z"/>
	<path opacity="9.000000e-02" fill="#231F20" d="M27.5,85.8c-0.4,0.4-1,0.6-1.6,0.6c-0.6,0-1.1-0.2-1.6-0.6l-0.2-0.2l-3.8-3.8
		c0.8-0.9,1.6-1.8,2.5-2.6c0.2-0.2,0.4-0.4,0.6-0.6l0.2,0.2l4,4C28.3,83.5,28.3,85,27.5,85.8z"/>
	<polygon fill="#E96A13" points="79.3,75.7 79,75.4 78.7,75.8 78.8,76 79.3,75.9 	"/>
	<g>
		<circle fill="#5A5958" cx="65.1" cy="123.8" r="2.9"/>
		<path fill="#44423D" d="M65.1,118.9c-2.7,0-4.9,2.2-4.9,4.9c0,2.7,2.2,4.9,4.9,4.9c2.7,0,4.9-2.2,4.9-4.9
			C70,121.1,67.8,118.9,65.1,118.9z M65.1,126.5c-1.5,0-2.6-1.2-2.6-2.6c0-1.5,1.2-2.6,2.6-2.6c1.5,0,2.6,1.2,2.6,2.6
			C67.8,125.3,66.6,126.5,65.1,126.5z"/>
		<circle fill="#44423D" cx="65.1" cy="122.6" r="0.5"/>
		<circle fill="#44423D" cx="65.1" cy="125.1" r="0.5"/>
		<circle fill="#44423D" cx="63.9" cy="123.8" r="0.5"/>
		<circle fill="#44423D" cx="66.4" cy="123.8" r="0.5"/>
	</g>
	<g>
		<circle fill="#5A5958" cx="72.4" cy="160.7" r="1.9"/>
		<path fill="#44423D" d="M72.4,157.4c-1.8,0-3.3,1.5-3.3,3.3c0,1.8,1.5,3.3,3.3,3.3c1.8,0,3.3-1.5,3.3-3.3
			C75.7,158.9,74.2,157.4,72.4,157.4z M72.4,162.5c-1,0-1.8-0.8-1.8-1.8c0-1,0.8-1.8,1.8-1.8c1,0,1.8,0.8,1.8,1.8
			C74.2,161.7,73.4,162.5,72.4,162.5z"/>
		<circle fill="#44423D" cx="72.4" cy="159.8" r="0.4"/>
		<circle fill="#44423D" cx="72.4" cy="161.5" r="0.4"/>
		<circle fill="#44423D" cx="71.6" cy="160.7" r="0.4"/>
		<circle fill="#44423D" cx="73.3" cy="160.7" r="0.4"/>
	</g>
	<path fill="#D2D2D2" d="M52.7,158.7L52.7,158.7c-0.9,0-1.6-0.7-1.6-1.6v-56.8c0-0.9,0.7-1.6,1.6-1.6l0,0c0.9,0,1.6,0.7,1.6,1.6
		v56.8C54.3,158,53.6,158.7,52.7,158.7z"/>
	<path fill="#44423D" d="M52.7,113.2L52.7,113.2c-1.4,0-2.5-1.1-2.5-2.5v-3.6c0-1.4,1.1-2.5,2.5-2.5l0,0c1.4,0,2.5,1.1,2.5,2.5v3.6
		C55.2,112.1,54.1,113.2,52.7,113.2z"/>
	<g>
		<circle fill="#5A5958" cx="40.5" cy="119" r="2.9"/>
		<path fill="#44423D" d="M40.5,114.1c-2.7,0-4.9,2.2-4.9,4.9s2.2,4.9,4.9,4.9c2.7,0,4.9-2.2,4.9-4.9S43.2,114.1,40.5,114.1z
			 M40.5,121.6c-1.5,0-2.6-1.2-2.6-2.6s1.2-2.6,2.6-2.6c1.5,0,2.6,1.2,2.6,2.6S42,121.6,40.5,121.6z"/>
		<circle fill="#7A786F" cx="40.5" cy="119" r="3.5"/>
	</g>
	<path fill="#44423D" d="M17.4,126.1l-15.1-1C1,125-0.1,123.8,0,122.4l0.1-2.1c0.1-1.4,1.3-2.4,2.7-2.3l15.1,1
		c1.4,0.1,2.4,1.3,2.3,2.7l-0.1,2.1C20,125.1,18.8,126.2,17.4,126.1z"/>
	<path fill="#44423D" d="M102.8,123.5l-15.1,1c-1.4,0.1-2.6-1-2.7-2.3l-0.1-2.1c-0.1-1.4,1-2.6,2.3-2.7l15.1-1
		c1.4-0.1,2.6,1,2.7,2.3l0.1,2.1C105.2,122.2,104.2,123.4,102.8,123.5z"/>
	<g>
		<path fill="#44423D" d="M60.9,206.4c8.8-3.2,18.4-5.1,28.3-5.4c1.5,0,2.7-1.2,2.6-2.5c0-0.7-0.1-1.4-0.1-2.1
			c-0.1-1.4-1.4-2.5-3-2.5c-10.7,0.3-20.9,2.4-30.4,5.9c-1.4,0.5-2.1,2-1.5,3.3c0.3,0.6,0.5,1.3,0.8,1.9
			C58.1,206.2,59.6,206.9,60.9,206.4z"/>
	</g>
	<g>
		<path fill="#44423D" d="M44.8,206.9c-8.8-3.2-18.4-5.1-28.3-5.4c-1.5,0-2.7-1.2-2.6-2.5c0-0.7,0.1-1.4,0.1-2.1
			c0.1-1.4,1.4-2.5,3-2.5c10.7,0.3,20.9,2.4,30.4,5.9c1.4,0.5,2.1,2,1.5,3.3c-0.3,0.6-0.5,1.3-0.8,1.9
			C47.5,206.7,46.1,207.3,44.8,206.9z"/>
	</g>
	<g>
		<g>
			<g>
				<path fill="#3C3C3B" d="M70.4,95.4c-0.1,0-0.1-0.1-0.2-0.1c-0.1,0-0.1,0-0.2,0c-0.1,0-0.2,0-0.2,0c-0.1,0-0.1,0.1-0.2,0.1
					c0,0-0.1,0.1-0.1,0.2c0,0.1,0,0.1,0,0.2v0.8c0,0.1,0,0.1,0,0.2c0,0.1,0.1,0.1,0.1,0.2c0.1,0,0.1,0.1,0.2,0.1c0.1,0,0.1,0,0.2,0
					c0.1,0,0.1,0,0.2,0c0.1,0,0.1-0.1,0.2-0.1c0,0,0.1-0.1,0.1-0.2c0-0.1,0-0.1,0-0.2l0-0.8c0-0.1,0-0.1,0-0.2
					C70.5,95.5,70.4,95.4,70.4,95.4z"/>
			</g>
			<g>
				<path fill="#3C3C3B" d="M71.8,93.7H59.9c-0.2,0-0.4,0.2-0.4,0.4v4.2c0,0.2,0.2,0.4,0.4,0.4h11.9c0.2,0,0.4-0.2,0.4-0.4v-4.2
					C72.2,93.9,72.1,93.7,71.8,93.7z M60,98.4c-0.1,0-0.2-0.1-0.2-0.2s0.1-0.2,0.2-0.2c0.1,0,0.2,0.1,0.2,0.2S60.2,98.4,60,98.4z
					 M60,94.5c-0.1,0-0.2-0.1-0.2-0.2c0-0.1,0.1-0.2,0.2-0.2c0.1,0,0.2,0.1,0.2,0.2C60.2,94.4,60.2,94.5,60,94.5z M62.9,97.2
					c0.1,0.1,0.1,0.1,0.1,0.2c0,0.1,0,0.2-0.1,0.2c-0.1,0.1-0.1,0.1-0.2,0.1c-0.1,0-0.2,0-0.2-0.1l-1.2-1v0.8c0,0.1,0,0.2-0.1,0.2
					c-0.1,0.1-0.1,0.1-0.2,0.1c-0.1,0-0.2,0-0.2-0.1c-0.1-0.1-0.1-0.1-0.1-0.2v-2.5c0-0.1,0-0.2,0.1-0.2c0.1-0.1,0.1-0.1,0.2-0.1
					c0.1,0,0.2,0,0.2,0.1c0.1,0.1,0.1,0.1,0.1,0.2v0.8l1.2-1c0.1-0.1,0.2-0.1,0.2-0.1c0.1,0,0.2,0,0.2,0.1c0.1,0.1,0.1,0.1,0.1,0.2
					c0,0.1,0,0.2-0.1,0.2l-1.2,1L62.9,97.2z M65.7,97.4c0,0.1,0,0.2-0.1,0.2c-0.1,0.1-0.1,0.1-0.2,0.1c-0.1,0-0.2,0-0.2-0.1
					c-0.1-0.1-0.1-0.1-0.1-0.2v-0.6H64v0.6c0,0.1,0,0.2-0.1,0.2c-0.1,0.1-0.1,0.1-0.2,0.1s-0.2,0-0.2-0.1c-0.1-0.1-0.1-0.1-0.1-0.2
					v-1.7c0-0.2,0-0.3,0.1-0.5c0.1-0.1,0.1-0.3,0.3-0.4c0.1-0.1,0.2-0.2,0.4-0.3c0.1-0.1,0.3-0.1,0.5-0.1c0.2,0,0.3,0,0.5,0.1
					c0.1,0.1,0.3,0.1,0.4,0.2c0.1,0.1,0.2,0.2,0.3,0.4c0.1,0.1,0.1,0.3,0.1,0.5V97.4z M68.5,97.4c0,0.1,0,0.2-0.1,0.2
					c-0.1,0.1-0.1,0.1-0.2,0.1c-0.1,0-0.2,0-0.2-0.1c-0.1-0.1-0.1-0.1-0.1-0.2v-1.7c0-0.1,0-0.1,0-0.2c0-0.1-0.1-0.1-0.1-0.2
					c-0.1,0-0.1-0.1-0.2-0.1c-0.1,0-0.1,0-0.2,0c-0.1,0-0.1,0-0.2,0c-0.1,0-0.1,0.1-0.2,0.1c0,0-0.1,0.1-0.1,0.2c0,0.1,0,0.1,0,0.2
					v1.7c0,0.1,0,0.2-0.1,0.2c-0.1,0.1-0.1,0.1-0.2,0.1c-0.1,0-0.2,0-0.2-0.1c-0.1-0.1-0.1-0.1-0.1-0.2v-1.7c0-0.2,0-0.3,0.1-0.5
					c0.1-0.1,0.1-0.3,0.3-0.4c0.1-0.1,0.2-0.2,0.4-0.3c0.1-0.1,0.3-0.1,0.5-0.1c0.2,0,0.3,0,0.5,0.1c0.1,0.1,0.3,0.1,0.4,0.2
					c0.1,0.1,0.2,0.2,0.3,0.4c0.1,0.1,0.1,0.3,0.1,0.5V97.4z M71.2,96.5c0,0.2,0,0.3-0.1,0.5c-0.1,0.1-0.1,0.3-0.3,0.4
					c-0.1,0.1-0.2,0.2-0.4,0.3c-0.1,0.1-0.3,0.1-0.5,0.1c-0.2,0-0.3,0-0.5-0.1c-0.1-0.1-0.3-0.1-0.4-0.2c-0.1-0.1-0.2-0.2-0.3-0.4
					c-0.1-0.1-0.1-0.3-0.1-0.5v-0.8c0-0.2,0-0.3,0.1-0.5c0.1-0.1,0.1-0.3,0.3-0.4c0.1-0.1,0.2-0.2,0.4-0.3c0.1-0.1,0.3-0.1,0.5-0.1
					c0.2,0,0.3,0,0.5,0.1c0.1,0.1,0.3,0.1,0.4,0.2c0.1,0.1,0.2,0.2,0.3,0.4c0.1,0.1,0.1,0.3,0.1,0.5V96.5z M71.7,98.4
					c-0.1,0-0.2-0.1-0.2-0.2s0.1-0.2,0.2-0.2c0.1,0,0.2,0.1,0.2,0.2S71.8,98.4,71.7,98.4z M71.7,94.5c-0.1,0-0.2-0.1-0.2-0.2
					c0-0.1,0.1-0.2,0.2-0.2c0.1,0,0.2,0.1,0.2,0.2C71.9,94.4,71.8,94.5,71.7,94.5z"/>
			</g>
			<g>
				<path fill="#3C3C3B" d="M64.9,95.4c-0.1,0-0.1-0.1-0.2-0.1c-0.1,0-0.1,0-0.2,0c-0.1,0-0.1,0-0.2,0c-0.1,0-0.1,0.1-0.2,0.1
					c-0.1,0-0.1,0.1-0.1,0.2c0,0.1,0,0.1,0,0.2v0.4h1.1v-0.4c0-0.1,0-0.1,0-0.2C65,95.5,65,95.4,64.9,95.4z"/>
			</g>
		</g>
	</g>
	<path opacity="9.000000e-02" fill="#231F20" d="M38.3,169.9c-0.2,0.9-1,1.5-1.9,1.5c-0.1,0-0.3,0-0.4,0l-12.7-2.9l1-3.8l12.6,2.8
		C37.8,167.8,38.5,168.8,38.3,169.9z"/>
	<path opacity="9.000000e-02" fill="#231F20" d="M37,174.9c-0.2,0.9-1,1.5-1.9,1.5c-0.1,0-0.3,0-0.4,0L22,173.5l1-3.8l12.6,2.8
		C36.6,172.8,37.2,173.8,37,174.9z"/>
	<path opacity="9.000000e-02" fill="#231F20" d="M67.4,169.2c0.2,0.9,1,1.5,1.9,1.5c0.1,0,0.3,0,0.4,0l12.7-2.9l-1-3.8l-12.6,2.8
		C67.9,167.1,67.2,168.1,67.4,169.2z"/>
	<path opacity="9.000000e-02" fill="#231F20" d="M68.7,174.2c0.2,0.9,1,1.5,1.9,1.5c0.1,0,0.3,0,0.4,0l12.7-2.9l-1-3.8l-12.6,2.8
		C69.1,172.1,68.5,173.1,68.7,174.2z"/>
	<path fill="#D2D2D2" d="M89.3,28.7c-1.7-8.7-6.5-16.2-13.2-21.4C70.1,2.7,62.6,0,54.5,0c-17,0-31.3,12-34.7,28v0
		c-0.5,2.4-0.8,4.9-0.8,7.4c0,2.5,0.3,5,0.8,7.4v0c3.4,16,17.6,28,34.7,28c0.2,0,0.4,0,0.6,0C71.6,70.6,85.4,59,89,43.5
		c0.6-2.6,0.9-5.3,0.9-8.1C89.9,33.1,89.7,30.9,89.3,28.7z M54.5,66.1c-1.2,0-2.3-0.1-3.5-0.2c-13.4-1.6-23.8-12-23.8-24.7
		c0-13.8,12.2-24.9,27.2-24.9c1.1,0,2.2,0.1,3.3,0.2c13.4,1.5,23.9,12,23.9,24.7C81.7,54.9,69.5,66.1,54.5,66.1z"/>
	<path opacity="0.32" fill="#FFFFFF" d="M44.6,44.9c0,7.7,2.4,14.9,6.5,20.9c-13.4-1.6-23.8-12-23.8-24.7
		c0-13.8,12.2-24.9,27.2-24.9c1.1,0,2.2,0.1,3.3,0.2C49.7,23.5,44.6,33.6,44.6,44.9z"/>
	<path opacity="0.2" fill="#D2D2D2" d="M81.7,41.1c0,13.8-12.2,24.9-27.2,24.9c-1.2,0-2.3-0.1-3.5-0.2c-4.1-6-6.5-13.2-6.5-20.9
		c0-11.3,5.1-21.5,13.2-28.5C71.3,17.9,81.7,28.4,81.7,41.1z"/>
</g>
</svg>
